<svg width="20" height="20" viewBox="0 0 20 20" fill="none" xmlns="http://www.w3.org/2000/svg">
<path d="M10 0.123291C4.5 0.123291 0 4.53321 0 9.96457C0 14.8754 3.66 18.9514 8.44 19.688V12.8128H5.9V9.96457H8.44V7.79399C8.44 5.32876 9.93 3.97337 12.22 3.97337C13.31 3.97337 14.45 4.15998 14.45 4.15998V6.58593H13.19C11.95 6.58593 11.56 7.34219 11.56 8.1181V9.96457H14.34L13.89 12.8128H11.56V19.688C13.9164 19.3225 16.0622 18.1416 17.6099 16.3585C19.1577 14.5754 20.0054 12.3077 20 9.96457C20 4.53321 15.5 0.123291 10 0.123291Z" fill="#351A1A"/>
</svg>
