<svg width="21" height="17" viewBox="0 0 21 17" fill="none" xmlns="http://www.w3.org/2000/svg">
<path d="M20.92 2.05197C20.15 2.39573 19.32 2.62163 18.46 2.72967C19.34 2.20912 20.02 1.3841 20.34 0.392117C19.51 0.883199 18.59 1.22696 17.62 1.42339C16.83 0.578728 15.72 0.0876465 14.46 0.0876465C12.11 0.0876465 10.19 1.9734 10.19 4.30113C10.19 4.63506 10.23 4.95918 10.3 5.26365C6.74 5.08686 3.57 3.40736 1.46 0.863555C1.09 1.48232 0.88 2.20912 0.88 2.97521C0.88 4.43863 1.63 5.73509 2.79 6.47171C2.08 6.47171 1.42 6.27528 0.84 5.98063C0.84 5.98063 0.84 5.98063 0.84 6.01009C0.84 8.05299 2.32 9.76196 4.28 10.145C3.92 10.2432 3.54 10.2923 3.15 10.2923C2.88 10.2923 2.61 10.2629 2.35 10.2138C2.89 11.8736 4.46 13.1111 6.35 13.1406C4.89 14.2799 3.04 14.9478 1.02 14.9478C0.68 14.9478 0.34 14.9281 0 14.8888C1.9 16.0871 4.16 16.7844 6.58 16.7844C14.46 16.7844 18.79 10.3611 18.79 4.79221C18.79 4.6056 18.79 4.42881 18.78 4.2422C19.62 3.6529 20.34 2.90646 20.92 2.05197Z" fill="#351A1A"/>
</svg>
