<svg width="21" height="20" viewBox="0 0 21 20" fill="none" xmlns="http://www.w3.org/2000/svg">
<path d="M10.9099 0.123291C5.44992 0.123291 0.999922 4.49387 0.999922 9.85643C0.999922 11.5752 1.45992 13.2449 2.31992 14.7181L0.919922 19.7664L6.16992 18.411C7.61992 19.1869 9.24992 19.5994 10.9099 19.5994C16.3699 19.5994 20.8199 15.2288 20.8199 9.86625C20.8199 7.26355 19.7899 4.81798 17.9199 2.98136C16.0499 1.13491 13.5599 0.123291 10.9099 0.123291ZM10.9199 1.76349C13.1199 1.76349 15.1799 2.60814 16.7399 4.1403C18.2899 5.67246 19.1499 7.70551 19.1499 9.86625C19.1499 14.3252 15.4499 17.9494 10.9099 17.9494C9.42992 17.9494 7.97992 17.5663 6.71992 16.8199L6.41992 16.6529L3.29992 17.4583L4.12992 14.4726L3.92992 14.1583C3.10992 12.8913 2.66992 11.3886 2.66992 9.85643C2.67992 5.39745 6.36992 1.76349 10.9199 1.76349ZM7.39992 5.35817C7.23992 5.35817 6.96992 5.4171 6.73992 5.66264C6.51992 5.90817 5.86992 6.50729 5.86992 7.69569C5.86992 8.89392 6.75992 10.043 6.86992 10.21C7.00992 10.377 8.62992 12.8324 11.1199 13.8734C11.7099 14.1386 12.1699 14.2859 12.5299 14.394C13.1199 14.5806 13.6599 14.5511 14.0899 14.4922C14.5699 14.4234 15.5499 13.9029 15.7599 13.3333C15.9699 12.7636 15.9699 12.2823 15.9099 12.1743C15.8399 12.0761 15.6799 12.0172 15.4299 11.9091C15.1799 11.7716 13.9599 11.1823 13.7399 11.1038C13.5099 11.0252 13.3699 10.9859 13.1799 11.2216C13.0199 11.4672 12.5399 12.0172 12.3999 12.1743C12.2499 12.3413 12.1099 12.3609 11.8699 12.2431C11.6099 12.1154 10.8099 11.86 9.86992 11.035C9.12992 10.3868 8.63992 9.59125 8.48992 9.34571C8.36992 9.10999 8.47992 8.96267 8.59992 8.85463C8.70992 8.7466 8.86992 8.56981 8.96992 8.42249C9.09992 8.28498 9.13992 8.17695 9.21992 8.0198C9.29992 7.85284 9.25992 7.71534 9.19992 7.59748C9.13992 7.48944 8.63992 6.27157 8.42992 5.79032C8.22992 5.31888 8.02992 5.37781 7.86992 5.36799C7.72992 5.36799 7.56992 5.35817 7.39992 5.35817Z" fill="#351A1A"/>
</svg>
